<svg width="300mm" height="200mm" version="1.1" viewBox="0 0 300 200" xmlns="http://www.w3.org/2000/svg"><g transform="translate(56.12 -178.4)" fill="none" stroke-width=".5292"><g stroke="#000" stroke-linejoin="bevel"><circle cx="144.4" cy="352.6" r="22.77"/><circle cx="16.4" cy="350.5" r="26.03"/><circle cx="116.7" cy="205" r="23.23"/><circle cx="-4.457" cy="184.8" r="8.237"/><circle cx="33.74" cy="240.5" r="20.21"/><circle cx="127.8" cy="324.8" r="16.03"/><circle cx="190.9" cy="325" r="18.24"/><circle cx="103.9" cy="291.8" r="22.07"/></g><g stroke="#f00"><path d="m-13.23 177.2c-2.611 2.673-3.114 7.505-1.918 11.05 1.058 3.134 4.192 5.551 7.276 6.747 2.631 1.02 5.893 1.092 8.467-0.0662 2.705-1.217 4.782-3.889 5.953-6.615 0.9953-2.317 1.602-5.229 0.5953-7.541-1.303-2.993-4.5-5.317-7.673-6.085-4.194-1.016-9.685-0.5735-12.7 2.514z"/><path d="m30.26 217c4.347-1.11 9.22-0.4467 13.41 1.155 4.521 1.728 8.669 4.878 11.61 8.723 2.348 3.069 3.778 6.938 4.297 10.77 0.5823 4.295 0.2972 8.948-1.43 12.92-1.936 4.457-5.513 8.278-9.498 11.06-2.732 1.908-6.053 3.125-9.365 3.504-4.976 0.5703-10.35 0.1546-14.9-1.945-4.014-1.854-7.437-5.185-9.837-8.899-2.39-3.699-3.96-8.171-4.055-12.57-0.1058-4.905 1.032-10.22 3.909-14.19 3.721-5.138 9.709-8.957 15.86-10.53z"/><path d="m95.84 186.2c-4.737 4.463-7.523 11.15-8.48 17.59-0.6444 4.335 0.2029 9.004 2.019 12.99 2.655 5.833 7.115 11.06 12.39 14.7 6.45 3.814 15.3 4.732 23.02 1.517 4.098-1.738 7.915-4.402 10.92-7.686 2.593-2.834 4.639-6.305 5.772-9.975 1.387-4.494 1.97-9.46 1.047-14.07-1.048-5.242-3.293-10.71-7.25-14.3-5.603-5.09-13.58-8.344-21.14-8.281-6.593 0.0544-13.5 2.994-18.29 7.515z"/><path d="m163.6 310.8c-8.399-0.1333-14.51-6.326-20.16-11.75-5.251-6.527-8.047-15.69-13.16-22.35-7.632-11.28-22.91-19.19-36.29-13.71-14.46 5.624-23.86 23.14-18.06 38.18 2.745 7.121 7.162 13.36 13.04 18.42 8.443 7.281 14 17.07 18.79 27.13 4.579 8.554 7.215 18.55 15.45 24.75 8.055 6.061 18.28 10.19 28.24 7.274 9.444-3.18 16.55-11.03 21.07-19.68 2.976-5.869 7.82-10.03 14.57-11.33 6.754-1.299 18.25-4.035 22.34-12.73 4.928-10.47 2.409-22.09-7.2-28.09-9.609-6-18.41-3.593-23.55-0.9244-5.314 2.758-9.663 4.889-15.09 4.803z"/><path d="m5.755 322.8c5.148-1.913 10.93-3.05 16.34-2.117 5.704 0.9839 11.29 3.879 15.48 7.871 3.99 3.801 7.009 8.974 8.202 14.35 1.275 5.745 0.4499 12.03-1.455 17.59-1.414 4.131-3.861 8.101-7.144 10.98-4.152 3.641-9.52 6.131-14.95 7.144-4.522 0.8439-9.296 0.0555-13.76-1.058-3.736-0.9325-7.604-2.19-10.58-4.63-4.164-3.411-7.528-8.133-9.26-13.23-1.904-5.6-2.152-11.97-0.7938-17.73 1.02-4.323 3.461-8.386 6.482-11.64 3.107-3.348 7.161-5.95 11.44-7.541z"/></g></g></svg>
