<?xml version="1.0" encoding="UTF-8" standalone="no"?>
<svg
   xmlns:dc="http://purl.org/dc/elements/1.1/"
   xmlns:cc="http://creativecommons.org/ns#"
   xmlns:rdf="http://www.w3.org/1999/02/22-rdf-syntax-ns#"
   xmlns:svg="http://www.w3.org/2000/svg"
   xmlns="http://www.w3.org/2000/svg"
   xmlns:sodipodi="http://sodipodi.sourceforge.net/DTD/sodipodi-0.dtd"
   xmlns:inkscape="http://www.inkscape.org/namespaces/inkscape"
   width="300mm"
   height="200mm"
   viewBox="0 0 300 200"
   version="1.1"
   id="svg8"
   inkscape:version="1.0.1 (3bc2e813f5, 2020-09-07)"
   sodipodi:docname="marching_squares_dark.svg">
  <defs
     id="defs2" />
  <sodipodi:namedview
     id="base"
     pagecolor="#ffffff"
     bordercolor="#666666"
     borderopacity="1.0"
     inkscape:pageopacity="0.0"
     inkscape:pageshadow="2"
     inkscape:zoom="0.5"
     inkscape:cx="641.20462"
     inkscape:cy="578.45005"
     inkscape:document-units="mm"
     inkscape:current-layer="layer2"
     inkscape:document-rotation="0"
     showgrid="false"
     fit-margin-top="0"
     fit-margin-left="0"
     fit-margin-right="0"
     fit-margin-bottom="0"
     inkscape:window-width="1278"
     inkscape:window-height="1368"
     inkscape:window-x="1273"
     inkscape:window-y="0"
     inkscape:window-maximized="0" />
  <metadata
     id="metadata5">
    <rdf:RDF>
      <cc:Work
         rdf:about="">
        <dc:format>image/svg+xml</dc:format>
        <dc:type
           rdf:resource="http://purl.org/dc/dcmitype/StillImage" />
        <dc:title></dc:title>
      </cc:Work>
    </rdf:RDF>
  </metadata>
  <g
     inkscape:groupmode="layer"
     id="layer2"
     inkscape:label="Layer 2"
     style="display:inline"
     transform="translate(56.118805,-178.40305)">
    <rect
       style="opacity:1;fill:#2d3436;fill-opacity:1;stroke:none;stroke-width:0.264583;stroke-linejoin:bevel;stroke-miterlimit:4;stroke-dasharray:none;stroke-opacity:1"
       id="rect935"
       width="300"
       height="200"
       x="-56.118805"
       y="178.40305" />
    <circle
       style="opacity:1;fill:none;fill-opacity:0.302419;stroke:#d2d6ce;stroke-width:0.52916667;stroke-linejoin:bevel;stroke-miterlimit:4;stroke-dasharray:none;stroke-opacity:1"
       id="path847-6-7-6"
       cx="144.43787"
       cy="352.60153"
       r="22.769758" />
    <circle
       style="opacity:1;fill:none;fill-opacity:0.302419;stroke:#d2d6ce;stroke-width:0.52916667;stroke-linejoin:bevel;stroke-miterlimit:4;stroke-dasharray:none;stroke-opacity:1"
       id="path847-6-7-3"
       cx="16.39555"
       cy="350.49286"
       r="26.025103" />
    <circle
       style="opacity:1;fill:none;fill-opacity:0.302419;stroke:#d2d6ce;stroke-width:0.52916667;stroke-linejoin:bevel;stroke-miterlimit:4;stroke-dasharray:none;stroke-opacity:1"
       id="path847-6-7-9"
       cx="116.67388"
       cy="204.99554"
       r="23.23481" />
    <circle
       style="opacity:1;fill:none;fill-opacity:0.302419;stroke:#d2d6ce;stroke-width:0.52916667;stroke-linejoin:bevel;stroke-miterlimit:4;stroke-dasharray:none;stroke-opacity:1"
       id="path847-6-7-0"
       cx="-4.4567184"
       cy="184.84616"
       r="8.2369776" />
    <circle
       style="opacity:1;fill:none;fill-opacity:0.302419;stroke:#d2d6ce;stroke-width:0.52916667;stroke-linejoin:bevel;stroke-miterlimit:4;stroke-dasharray:none;stroke-opacity:1"
       id="path847"
       cx="33.743927"
       cy="240.50374"
       r="20.21199" />
    <circle
       style="opacity:1;fill:none;fill-opacity:0.302419;stroke:#d2d6ce;stroke-width:0.52916667;stroke-linejoin:bevel;stroke-miterlimit:4;stroke-dasharray:none;stroke-opacity:1"
       id="path847-6"
       cx="127.80289"
       cy="324.83752"
       r="16.026548" />
    <circle
       style="opacity:1;fill:none;fill-opacity:0.302419;stroke:#d2d6ce;stroke-width:0.52916667;stroke-linejoin:bevel;stroke-miterlimit:4;stroke-dasharray:none;stroke-opacity:1"
       id="path847-6-7"
       cx="190.94543"
       cy="324.95468"
       r="18.235533" />
    <circle
       style="opacity:1;fill:none;fill-opacity:0.302419;stroke:#d2d6ce;stroke-width:0.52916667;stroke-linejoin:bevel;stroke-miterlimit:4;stroke-dasharray:none;stroke-opacity:1"
       id="path847-6-7-2"
       cx="103.90481"
       cy="291.80191"
       r="22.072184" />
    <path
       style="fill:none;stroke:#ff0000;stroke-width:0.52916667;stroke-linecap:butt;stroke-linejoin:miter;stroke-miterlimit:4;stroke-dasharray:none;stroke-opacity:1"
       d="m -13.229166,177.20469 c -2.611446,2.67342 -3.113644,7.50547 -1.918229,11.04635 1.057987,3.13382 4.192209,5.55101 7.2760409,6.74688 2.6313831,1.02041 5.8929926,1.09213 8.4666666,-0.0662 2.7050125,-1.21739 4.782153,-3.88914 5.9531249,-6.61457 0.9953177,-2.3166 1.6020745,-5.22898 0.5953125,-7.54063 -1.3034459,-2.99286 -4.5002138,-5.31719 -7.67291653,-6.08542 -4.19424487,-1.01558 -9.68451037,-0.57351 -12.69999937,2.51355 z"
       id="path952"
       sodipodi:nodetypes="aaaaaaaa" />
    <path
       id="path954"
       style="fill:none;stroke:#ff0000;stroke-width:0.52916667;stroke-linecap:butt;stroke-linejoin:miter;stroke-miterlimit:4;stroke-dasharray:none;stroke-opacity:1"
       d="m 30.264639,216.97908 c 4.347383,-1.11037 9.220012,-0.44673 13.411151,1.15546 4.52137,1.72844 8.66866,4.87814 11.609899,8.72254 2.348078,3.0691 3.777577,6.93797 4.296733,10.76724 0.582257,4.2947 0.297223,8.94805 -1.429712,12.92312 -1.93641,4.45724 -5.513441,8.27833 -9.497584,11.061 -2.732397,1.90841 -6.053312,3.12451 -9.364501,3.50402 -4.975986,0.57033 -10.352088,0.15463 -14.899257,-1.94512 -4.01423,-1.85366 -7.436996,-5.18518 -9.836719,-8.89886 -2.390056,-3.69872 -3.959906,-8.17083 -4.054882,-12.57354 -0.105809,-4.90486 1.031553,-10.2159 3.909089,-14.18939 3.720946,-5.13813 9.709146,-8.95654 15.855783,-10.52647 z"
       sodipodi:nodetypes="aaaaaaaaaaaa" />
    <path
       id="path956"
       style="opacity:1;fill:none;stroke:#ff0000;stroke-width:0.52916667;stroke-linecap:butt;stroke-linejoin:miter;stroke-miterlimit:4;stroke-dasharray:none;stroke-opacity:1"
       d="m 95.835315,186.20571 c -4.737002,4.46344 -7.522632,11.15053 -8.479516,17.58837 -0.644379,4.33533 0.20292,9.0038 2.018553,12.99301 2.654998,5.83342 7.114824,11.06223 12.388348,14.70472 6.45018,3.81357 15.29546,4.73199 23.02249,1.51716 4.09802,-1.73763 7.9151,-4.40201 10.91986,-7.68599 2.59333,-2.83432 4.63906,-6.30468 5.77221,-9.97546 1.38738,-4.49431 1.96951,-9.45963 1.04696,-14.07185 -1.04845,-5.24165 -3.29331,-10.70963 -7.2498,-14.30412 -5.60256,-5.08995 -13.57525,-8.34371 -21.14442,-8.2813 -6.59251,0.0544 -13.49642,2.9943 -18.294685,7.51546 z"
       sodipodi:nodetypes="aaaccaaaaaa" />
    <path
       id="path968"
       style="fill:none;stroke:#ff0000;stroke-width:0.52916667;stroke-linecap:butt;stroke-linejoin:miter;stroke-miterlimit:4;stroke-dasharray:none;stroke-opacity:1"
       d="m 163.64479,310.75312 c -8.39941,-0.13331 -14.50837,-6.32647 -20.16268,-11.7496 -5.25126,-6.52713 -8.04678,-15.69342 -13.15555,-22.35122 -7.63223,-11.28258 -22.9057,-19.193 -36.290673,-13.71016 -14.461798,5.62414 -23.858281,23.1412 -18.060472,38.17969 2.745214,7.1206 7.162249,13.35606 13.038879,18.42399 8.44305,7.28118 13.999536,17.07255 18.792246,27.13345 4.57931,8.55398 7.21474,18.55308 15.44722,24.74798 8.05518,6.06149 18.28368,10.1853 28.24482,7.27385 9.44378,-3.17973 16.54946,-11.03098 21.07334,-19.68354 2.97612,-5.86865 7.82049,-10.03003 14.57427,-11.32942 6.75379,-1.29939 18.24842,-4.03524 22.33767,-12.72564 4.92757,-10.472 2.40852,-22.08775 -7.2,-28.08822 -9.60853,-6.00048 -18.41133,-3.59299 -23.55312,-0.92435 -5.31368,2.75786 -9.66331,4.88925 -15.08595,4.80319 z"
       sodipodi:nodetypes="scccsscscczszss" />
    <path
       style="fill:none;stroke:#ff0000;stroke-width:0.52916667;stroke-linecap:butt;stroke-linejoin:miter;stroke-miterlimit:4;stroke-dasharray:none;stroke-opacity:1"
       d="m 5.7546874,322.79166 c 5.1476866,-1.91262 10.9264186,-3.05013 16.3380206,-2.11666 5.703975,0.9839 11.286834,3.8793 15.478125,7.87135 3.990278,3.80059 7.008576,8.97384 8.202083,14.35365 1.274584,5.74527 0.449871,12.02672 -1.455208,17.59479 -1.413529,4.13139 -3.860676,8.10134 -7.14375,10.98021 -4.152399,3.64117 -9.519973,6.13052 -14.948958,7.14375 -4.521586,0.84388 -9.295576,0.0555 -13.7583334,-1.05834 -3.7360159,-0.93247 -7.60436023,-2.19033 -10.5833332,-4.63021 -4.1642769,-3.41069 -7.5277062,-8.13291 -9.2604164,-13.22916 -1.904026,-5.60012 -2.151775,-11.97015 -0.79375,-17.72709 1.01975,-4.32293 3.4609033,-8.38608 6.4822914,-11.64166 3.1074627,-3.34833 7.1611375,-5.94962 11.443229,-7.54063 z"
       id="path974"
       sodipodi:nodetypes="aaaaaaaaaaaaa" />
  </g>
</svg>
