<svg width="900" height="600" version="1.1" xmlns="http://www.w3.org/2000/svg"><path d="m348.7 332.3c23.67 0.9605 48.99-2.049 68.76-16.61 7.532-5.547 10.87-14.6 7.291-23.26-4.47-10.81-11.33-20.31-17.73-29.99-38.35-58.07-76.5-117.6-128.1-165-10.24-9.395-20.23-19.6-33.58-24.64-14.33-5.419-33.01-6.381-44.13 5.7-8.442 9.172-11.01 22-13.57 33.82-9.494 43.89 0.6424 89.25 14.65 131.1 15.92 47.62 46.23 92.09 90.3 117.5 18.86 10.89 40.15 16.63 61.69 19.04 39.47 4.418 78.11-11.48 117.3-8.491 24.05 1.83 41.58 22.11 56.3 39.86 14.34 17.29 30.1 33.26 45.53 49.54 16.99 17.92 36.73 37.29 62.08 39.87 12.43 1.266 23.23-9.995 26.76-21.88 6.307-21.23 2.569-43.91-2.907-64.86-10.32-39.44-35.53-76.31-72.04-95.81-20.8-11.12-45.3-14.33-68.39-9.797-13.86 2.725-29.62 8.578-35.18 22.77-2.947 7.526 0.6288 15.81 3.36 22.88 7.848 20.32 22.18 37.11 34.62 54.73 28.56 40.45 57.8 82.25 99.02 110.9 9.995 6.938 20.55 15.83 33.53 14.95 17.65-1.185 30.23-17.54 34.23-33.66 2.403-9.68 1.74-19.72 1.768-29.6 0.1705-62.39-25.95-125.7-73.77-166.7-27.45-23.56-64.74-32.4-100.2-30.38-21.17 1.203-41.86 6.239-62.08 12.43-13.44 4.118-28.41-1.737-37.32-13.21-41.89-53.92-77.67-113.2-128.2-159.9-10.08-9.302-20.56-18.25-31.78-26.06-16.7-11.63-41.81-5.911-53.27 10.95-7.142 10.5-7.476 23.4-8.64 35.48-6.406 66.53 17.43 135 61.27 185.1 35.32 40.37 93.21 54.82 145.6 46.6 22.02-3.457 44.1-12.01 66.59-7.08 15.11 3.312 24.74 16.28 34.5 27.08 36.27 40.07 64.8 88.26 109.7 119.7 8.881 6.232 17.88 13.72 28.95 15.34 16.84 2.458 31.18-11.8 36.27-26.84 3.582-10.58 2.529-21.8 2.279-32.71-1.232-53.75-23.83-108.2-65.29-143.5-19.68-16.75-44.19-27.96-70.06-30.1-34.14-2.836-65.29 14.16-97.6 24.66-9.321 3.026-11.21-15.31-16.41-23.32-51.9-79.96-97.54-164.9-161.7-236.1-12.9-14.34-27.1-27.77-43.21-38.44-13.71-9.073-32.38-15.14-47.71-7.173-19.8 10.3-28.32 33.19-32.28 54.09-4.558 24.07-5.493 48.62-4.468 73.03 3.329 79.41 25.97 159.2 71.98 224.5 35.23 49.97 95 81.32 156.6 82.87 59.09 1.476 117.2-17.64 176.3-9.042 11.34 1.654 22.26 5.193 33.14 8.696 11.42 3.677 26.93 0.6492 32.97-10.81 4.503-8.553 0.5893-18.44-2.528-26.75-6.362-16.97-20.52-32.82-39.36-35.83-7.978-1.276-17.45 1.794-18.62 10.68-1.624 12.3 5.397 23.92 12.63 33.24 9.624 12.42 19.89 26.58 35.64 31.17 5.749 1.674 14.14 2.405 17.43-4.281 7.291-14.76 1.942-31.77-6.226-44.68-9.692-15.31-23.98-29.54-42.64-32.49-8.504-1.342-19.92 1.815-21.79 10.78-3.713 17.85 8.25 34.3 19.48 47.2 5.532 6.356 10.71 13.02 16.63 18.99 8.529 8.597 21.93 14.41 34.13 10.92 9.024-2.585 10.67-13.44 9.754-21.66-2.904-26.14-16.95-51.89-39.82-65.36-10.86-6.387-24.58-10.01-36.86-6.214-10.92 3.38-12.55 17.05-10.03 26.8 3.246 12.52 11.52 22.79 18.72 33.22 13.65 19.76 31.83 40.93 56.61 43.75 9.859 1.121 17.29-9.933 18.22-19.67 1.75-18.38-4.919-36.58-14.06-52.16-12.03-20.5-32.04-38.94-56.51-41.62-8.758-0.9612-18.83-0.0201-25.94 5.622-8.9 7.068-8.015 20.01-4.378 29.72 6.82 18.21 19.41 33.33 31.28 48.42 14.92 18.97 34.2 39.99 59.32 40.31 12.01 0.1528 18.63-14.57 19.07-26.09 0.739-19.35-5.256-38.48-14.06-55.46-12.58-24.24-34.41-45.45-61.62-51.76-12.79-2.97-27.43-2.607-38.79 4.449-10.43 6.48-10.53 20.84-7.334 31.53 3.97 13.3 12.61 24.4 20.21 35.77 19.39 29.01 43.41 56.33 74.76 72.85 9.147 4.812 21.66 4.261 28.41-4.311 10.42-13.23 12.34-31.71 8.727-47.64-3.044-13.41-6.796-26.76-12.82-39.26-14.69-30.45-40.22-58-73.84-66.53-12.65-3.202-26.25-3.931-38.95-0.7835-12.82 3.18-26.02 14.16-25.25 28.41 0.525 9.624 6.063 18.12 10.37 26.52 18.5 36.13 45.26 67.34 73.9 95.81 13.34 13.25 28.36 27.05 47.45 30.92 9.76 1.979 21.66-1.43 26.89-10.17 12.7-21.23 11.01-47.64 5.229-70.86-6.517-26.17-16.58-51.92-33.57-73.22-22.21-27.86-55.26-49.34-91.6-49.86-14.8-0.2125-29.76 2.426-43.61 7.674-9.803 3.717-21.43 10.7-21.88 21.58-0.9073 21.52 16.83 38.01 27.95 55.29 11.12 17.27 23.28 33.84 35.25 50.53 26.54 36.99 57.02 71.36 93.08 99.77 14.2 11.17 34.44 14.07 48.99 3.365 9.884-7.272 14.67-19.11 16.39-31.09 9.135-63.62-9.896-129-46.22-181.3-28.38-40.84-77.36-65.17-126.7-65.29-14.51-0.0306-28.95 1.984-43.19 4.501-19.12 3.378-39.21 10.95-58.43 4.227-13.32-4.66-21.79-16.71-30.83-26.8-36.48-40.69-65.29-89.31-110.4-121.4-9.376-6.666-18.88-15.03-31.08-15.45-20.25-0.6944-34.95 18.73-36.17 38.38-4.023 64.8 20.28 132.8 71.48 173.4 30.87 24.45 73.28 29.76 111.1 21.66 16.48-3.535 31.9-10.63 47.21-17.56 8.949-4.047 14.04 7.148 18.29 13.47 49.52 73.59 93.45 151.8 154.6 216.7 16.1 17.11 33.69 34.31 56.18 42.54 13.73 5.022 31.04 2.548 40.66-9.438 16.38-20.42 20.84-47.16 21.66-72.47 0.635-19.84-0.3866-39.67-3.047-59.35-7.984-59.04-26.78-118.1-63.69-165.7-19.56-25.18-43.91-47.59-73.77-59.87-42.91-17.63-90.73-17.6-135.9-10.4-29.41 4.687-60.58 8.089-89.31-2.159-9.104-3.244-16.93-8.956-25.13-13.86-17.77-10.62-32.7-27.3-53.6-31.63-8.108-1.682-19.43-0.387-23.4 7.093-10.85 20.42-2.151 45.33 9.587 63.93 11 17.45 26.82 32.77 47.06 38.68 12.45 3.638 29.08 3.368 36.37-8.182 7.99-12.67 0.627-28.85-6.888-40.59-6.987-10.92-14.38-21.58-23.08-31.23-12.88-14.29-25.52-30.64-44.16-37.49-8.912-3.275-21.54-3.826-26.86 4.016-13.56 19.97-5.16 47.14 5.165 67.77 10.65 21.28 26.66 40.59 48.48 51.06 16.92 8.114 39.28 10.95 54.5-1.371 9.246-7.483 8.188-21.4 4.004-31.65-8.516-20.86-22.66-38.7-36.57-56.17-16.05-20.15-35.18-39.56-59.66-48.75-9.222-3.465-20.91-0.2216-26.19 8.652-8.758 14.69-8.25 33.09-4.639 49.2 4.873 21.74 14.39 42.55 28.41 60.07 18.31 22.89 45.66 40.75 75.75 40.31 11.06-0.1631 22.96-1.417 31.77-9.079 9.246-8.046 12.55-21.74 6.956-33.05-22.41-45.31-55.24-84.42-91.91-118.8-12.39-11.6-29.73-20.23-46.83-16.72-11.64 2.387-17.88 14.05-19.4 25.19-7.074 51.77 13.78 105.2 50.96 141 25.38 24.45 63.19 36.68 97.85 28.87 12.07-2.724 24.39-7.674 32.94-16.71 7.736-8.188 4.622-21.01-0.373-30.07-12.66-22.97-28.16-44.21-43.18-65.67-27.7-39.58-59.85-76.06-96.67-107.8-16.26-14-41.87-17.69-57.46-2.31-7.631 7.532-9.742 18.23-11.05 28.49-8.182 64.12 12.92 130.3 53.43 179.9 34.19 41.84 92.59 58.35 145.2 49.07 18.21-3.211 35.83-9.909 54.51-9.692 11.04 0.129 20.67 6.375 27.81 14.58 41.57 47.75 74.02 103.5 122.3 145.3 9.698 8.399 19.8 16.49 30.76 23.1 15.24 9.197 35.7 2.195 45.96-11.73 6.517-8.85 8.937-19.26 9.816-30.36 5.313-67.21-21.53-137.4-72.1-182.9-26.31-23.66-62.26-33.86-97.11-33.04-22.88 0.5376-45.37 5.509-67.21 12.17-13.91 4.248-29.68-1.083-39.09-13.02-41.62-52.81-76.68-111.3-126.8-157-10.81-9.853-22.13-19.32-34.44-27.15-15.54-9.89-37.13-3.553-48.16 10.69-6.43 8.3-8.287 18.71-9.383 28.9-7.229 67.58 14.73 137.6 58.99 188.8 35.12 40.59 93.15 55.53 145.5 46.86 21.6-3.577 43.29-12.12 65.42-7.272 14.74 3.228 23.88 16.12 33.25 26.72 36.76 41.58 65.85 90.92 111.2 124.2 8.925 6.548 18 13.71 28.72 16.91 14.75 4.4 29.32-6.128 36.37-18.71 5.539-9.872 6.443-21.23 6.393-32.36-0.2219-55.8-19.61-113.1-60.36-152.1-18.99-18.18-42.91-31.68-69.13-35.59-34.89-5.205-70.37 2.953-102.4 16.75-8.819 3.802-16.47-4.347-21.1-11.06-29.32-42.43-56.71-86.21-86.89-128.1-25.27-34.99-52.38-69.26-85.47-97.17-13.53-11.4-31.15-20.84-49.49-18.6-12.57 1.539-21.44 11.93-26.53 22.92-14.19 30.65-13.76 65.36-10.39 98.16 3.632 35.38 12.59 70.25 26.37 103 17.91 42.61 46.7 81.82 86.52 106.4 29.16 17.97 63.87 24.18 97.66 23.45 29.83-0.6418 59.21-6.461 88.81-9.147 29.26-2.65 56.02 14.82 76.62 34.22 8.72 8.201 17.97 15.86 26.95 23.79 12.27 10.82 25.88 22.71 42.91 23.99 7.922 0.5973 18.03-1.688 21.73-8.72 11.96-22.77 4.386-50.54-6.845-72.66-10.38-20.42-25.24-39.18-45.57-50.43-18.68-10.34-42.91-14.54-61.95-2.882-10.02 6.14-11.82 19.69-8.318 30.11 6.969 20.76 20.83 38.14 33.72 55.47 19.32 25.96 42.06 51.68 72.78 63.75 9.896 3.893 22.31-0.1642 27.77-9.717 8.603-15.03 8.275-33.48 5.123-50.03-6.585-34.55-24.15-67.58-51.75-89.87-19.09-15.4-43.75-23.86-68.39-22.09-14.49 1.039-30.48 7.062-37.51 20.54-4.579 8.776-0.5786 18.52 3.301 26.78 18.42 39.17 46.04 73.03 75.14 104.5 15.94 17.25 32.85 36.08 56.18 42.96 8.157 2.404 17.74 3.604 25.32-1.65 13.93-9.667 17.64-27.6 17.82-43.37 0.4951-43.92-14.48-88.01-41.59-122.6-22.45-28.62-56.56-49.14-93.52-50.61-26.98-1.074-57.56 2.789-76.43 23.25-7.161 7.767 0.6251 19.1 5.776 26.63 5.723 8.374 10.89 17.08 16.55 25.51 41.13 61.24 80.83 124.5 134.7 175.7 14.76 14.02 32.45 27.39 53.48 28.71 13.31 0.8343 25.22-8.071 30.87-19.9 14.64-30.61 14.72-65.54 10.55-98.41-3.195-25.18-8.609-50.08-17.15-74.02-15.59-43.66-40.65-85.53-78.54-113.3-26.64-19.48-59.25-30.24-92.28-31.04-35.04-0.8578-69.5 6.796-104.3 8.925-22.06 1.349-41.93-11.61-57.68-26.01-16.07-14.7-30.61-30.97-47.07-45.29-15.33-13.33-31.92-28.59-53.22-29.78-8.881-0.4941-16.51 7.285-20.25 14.72-8.535 16.93-4.112 36.86 0.335 54.43 8.887 35.11 31.71 67.46 64.3 84.17 19.76 10.1 43.77 12.58 64.49 4.525 15.44-5.997 20.57-26.69 12.67-40.97-25.9-46.78-60.34-88.38-100.6-123.9-14.63-12.9-37.8-17.26-52.21-3.405-7.687 7.39-9.271 18.39-9.414 28.72-0.6938 50.92 18.64 103.5 57.95 136.7 17.86 15.06 39.98 25.13 63.38 27.35 24.33 2.305 53.05-1.105 68.64-21.13 7.631-9.791 0.4436-23.46-5.628-33.02-7.872-12.39-15.72-24.74-24.07-36.83-34.57-50.06-71.55-99.21-118.6-138.6-16.28-13.62-41.63-17.1-57.17-1.997-7.637 7.421-9.841 18.07-11.31 28.23-9.197 63.38 10.58 128.5 47.5 180 30.59 42.67 84.23 66.41 136.1 62.14 14.9-1.232 29.69-3.531 44.24-7.111 16.39-4.035 35.35-7.978 50.61 1.53 9.878 6.153 16.93 15.84 24.55 24.5 37.07 42.15 66.78 91.85 112.8 125.3 9.079 6.616 18.18 14.59 30.1 15.36 19 1.224 36.5-14.45 37.85-33.32 1.363-19.12 1.914-38.43-1.209-57.43-7.947-48.36-32.19-95-70.74-125.7-31.17-24.84-74.02-30.23-112.5-22.9-14.96 2.853-29.28 8.126-43.29 13.99-7.842 3.28-17.39 0.5883-22.71-6.956-47.52-67.34-88.94-139.7-147-199-10.31-10.52-20.7-21.19-32.59-29.89-14.12-10.34-33.76-16.61-50.81-9.655-12.43 5.065-17.52 18.36-21.43 30.14-13 39.13-8.306 81.39-0.0145 120.9 9.253 44.17 26.71 87.2 54.45 123 22.44 28.98 53.48 51.52 88.94 61.95 36.38 10.69 74.52 5.863 111.4 1.657 15.69-1.79 31.55-4.577 47.32-3.296 24.49 1.99 44.53 18.52 61.72 34.9 12.95 12.34 26.49 23.99 39.81 36.02 12.74 11.51 29.65 20.86 46.86 17.41 10.92-2.185 17.48-13.03 17.77-23.74 1.138-41.46-17.08-84.11-50.95-108.7-16.79-12.18-38.09-19.44-58.85-16.95-12.87 1.543-27.15 9.971-29.31 23.78-1.589 10.16 4.134 19.59 8.33 28.44 15.91 33.61 41.27 61.64 67.34 87.7 12.57 12.58 27.32 24.81 45.32 28.38 12.41 2.463 24.87-6.232 28.4-18.36 8.318-28.64 2.174-59.15-9.742-85.59-9.599-21.32-22.11-41.94-40.66-56.74-25.24-20.14-59.9-31.89-91.54-21.98-9.141 2.864-19.59 6.109-25.05 14.49-7.934 12.18-1.872 27.9 5.346 39.27 32.99 51.98 69.94 102.1 116.6 142.9 14.1 12.33 34.86 20.48 52.36 12.01 10.2-4.933 14.18-16.35 16.06-26.91 8.615-48.22-4.69-98.03-29.42-139.5-11.96-20.04-27.14-38.48-46.84-51.36-32.29-21.12-72.91-27.05-110.7-19.25-18.4 3.793-35.96 19.4-54.27 13.53-20.92-6.715-27.4-32.3-39.86-49.33-39.94-54.57-74.52-114-124.4-160.4-8.052-7.495-16.1-15.1-25.02-21.51-15.27-10.99-38.5-14.1-54.12-1.844-11.01 8.64-13.67 23.25-16.59 36.09-10.55 46.41-0.9574 94.63 13.04 139.4 15.33 48.96 44.2 95.31 87.33 124.2 19.74 13.23 42.6 20.99 66.04 24.59 44.38 6.827 88.19-10.16 132.4-6.808 24.21 1.834 43.17 20.28 59.38 37.25 13.24 13.84 26.38 27.83 41.25 39.99 13.16 10.76 26.65 23.92 44.3 25.72 7.978 0.8145 17.89-1.706 22.11-8.987 12.32-21.28 8.046-47.48 0.2377-69.63-7.495-21.25-18.34-41.71-34.84-57.42-20.71-19.71-49.77-33.7-78.66-28.38-10.27 1.891-22.32 4.528-28.15 14.21-7.365 12.23-3.002 27.55 3.93 39.28 17.06 28.86 36.95 55.9 58.86 81.2" fill="none" stroke="#d3d7cf"/></svg>
