<svg width="600" height="400" version="1.1" xmlns="http://www.w3.org/2000/svg"><rect width="600" height="400" fill="#2e3436" stroke-width=".6241"/><g transform="translate(7.818 -110.3)" fill="none"><g stroke-miterlimit="10"><path d="m145 165 270 270 30.5-30.5 104-183-100.8 57.25m-309.7-107.8 264 264 36.46-36.46 108.3-178.7-98.38 59.62m-316.4-102.5 258.1 258.1 42.43-42.43 112.5-174.5-96.04 61.96m-323-97.18 252.1 252.1 48.39-48.39 116.7-170.3-93.73 64.27m-329.5-91.76 246.1 246.1 54.36-54.36 120.9-166.1-91.44 66.56m-335.9-86.27 240.2 240.2 60.32-60.32 125-162-89.18 68.82m-342.3-80.73 234.2 234.2 66.29-66.29 129.1-157.9-86.93 71.07m-348.6-75.14 228.2 228.2 72.25-72.25 133.2-153.8-84.69 73.31m-354.9-69.51 222.3 222.3 78.21-78.21 61.68-67.32m-368.1-70.78 216.3 216.3 84.18-84.18 63.49-65.51m-370-60.67 210.4 210.4 90.14-90.14 65.3-63.7m-371.8-50.55 204.4 204.4 96.11-96.11 67.12-61.88m-373.6-40.44 198.4 198.4 102.1-102.1 153.4-133.6-73.56 84.44m-386.3-41.2 192.5 192.5 108-108 157.4-129.6-71.33 86.67m-392.6-35.57 186.5 186.5 114-114 161.5-125.5-69.08 88.92m-398.9-29.98 180.5 180.5 120-120 165.6-121.4-66.81 91.19m-405.3-24.43 174.6 174.6 125.9-125.9 169.8-117.2-64.53 93.47m-411.7-18.93 168.6 168.6 131.9-131.9 174-113-62.22 95.78m-418.2-13.5 162.6 162.6 137.9-137.9 178.2-108.8-59.89 98.11m-424.8-8.154 156.7 156.7 143.8-143.8 182.5-104.5-57.52 100.5" stroke="#d3d7cf" stroke-linejoin="bevel" stroke-opacity=".4" paint-order="fill stroke markers"/><path d="m147.1 163.2-117.1 116.8" stroke="#d3d7cf" stroke-width="3" paint-order="fill stroke markers"/><path d="m171 435h261" stroke="#f00" paint-order="fill stroke markers"/></g></g><g fill="none" stroke="#f00"><path d="m519.4 72.81 42.84 42.84" stroke-width="1px"/><path d="m453 164.3 16.31 16.31" stroke-width="3"/><path d="m192.9 325.3h238"/></g><ellipse transform="rotate(-45)" cx="112.2" cy="448" rx="3.839" ry="89.83" fill="#fff" fill-opacity=".2972" stroke="#f00" stroke-linejoin="bevel"/><rect x="653.7" y="-.2186" width="600" height="400" fill="#fff"/><g transform="translate(661.6 -110.5)" fill="none"><g stroke-miterlimit="10"><path d="m145 165 270 270 30.5-30.5 104-183-100.8 57.25m-309.7-107.8 264 264 36.46-36.46 108.3-178.7-98.38 59.62m-316.4-102.5 258.1 258.1 42.43-42.43 112.5-174.5-96.04 61.96m-323-97.18 252.1 252.1 48.39-48.39 116.7-170.3-93.73 64.27m-329.5-91.76 246.1 246.1 54.36-54.36 120.9-166.1-91.44 66.56m-335.9-86.27 240.2 240.2 60.32-60.32 125-162-89.18 68.82m-342.3-80.73 234.2 234.2 66.29-66.29 129.1-157.9-86.93 71.07m-348.6-75.14 228.2 228.2 72.25-72.25 133.2-153.8-84.69 73.31m-354.9-69.51 222.3 222.3 78.21-78.21 61.68-67.32m-368.1-70.78 216.3 216.3 84.18-84.18 63.49-65.51m-370-60.67 210.4 210.4 90.14-90.14 65.3-63.7m-371.8-50.55 204.4 204.4 96.11-96.11 67.12-61.88m-373.6-40.44 198.4 198.4 102.1-102.1 153.4-133.6-73.56 84.44m-386.3-41.2 192.5 192.5 108-108 157.4-129.6-71.33 86.67m-392.6-35.57 186.5 186.5 114-114 161.5-125.5-69.08 88.92m-398.9-29.98 180.5 180.5 120-120 165.6-121.4-66.81 91.19m-405.3-24.43 174.6 174.6 125.9-125.9 169.8-117.2-64.53 93.47m-411.7-18.93 168.6 168.6 131.9-131.9 174-113-62.22 95.78m-418.2-13.5 162.6 162.6 137.9-137.9 178.2-108.8-59.89 98.11m-424.8-8.154 156.7 156.7 143.8-143.8 182.5-104.5-57.52 100.5" stroke="#000" stroke-linejoin="bevel" stroke-opacity=".4" paint-order="fill stroke markers"/><path d="m147.4 163-117.4 117" stroke="#000" stroke-width="3" paint-order="fill stroke markers"/><path d="m171 435h261" stroke="#f00" paint-order="fill stroke markers"/></g></g><g fill="none" stroke="#f00"><path d="m1173 72.59c42.84 42.84 42.84 42.84 42.84 42.84" stroke-width="1px"/><path d="m1107 164.1 16.31 16.31" stroke-width="3"/><path d="m846.7 325h238"/></g><ellipse transform="rotate(-45)" cx="574.6" cy="910.1" rx="3.839" ry="89.83" fill="#fff" fill-opacity=".2972" stroke="#f00" stroke-linejoin="bevel"/></svg>
