<svg width="900" height="600" version="1.1" viewBox="0 0 238.1 158.8" xmlns="http://www.w3.org/2000/svg"><g fill="none" stroke="#000"><path d="m36.05 87.96v-71.06" stroke-linecap="round" stroke-width="2.303"/><path d="m120.9 87.96v-71.06" stroke-linecap="round" stroke-width="2.303"/><g stroke-width=".5292"><path d="m52.5 17.06v19.25"/><path d="m49.05 36.47h58.89"/><path d="m104.5 17.14v19.25"/></g></g><path d="m57.77 50.31c3.806-6.593-3.722-5.583-3.722-5.583l4.595-8.142h41.29l4.077 7.062s-2.516-0.4174-6.303-0.9259c-3.787-0.5085-9.891 4.475-15.44 4.576-5.095 0.09259-8.679-6.542-12.57-6.11-3.888 0.4322-6.555 1.426-6.757 3.307-0.06109 0.5695 0.4723 5.823 0.4723 5.823z" fill="#ff0101"/><rect x="49.05" y="77.18" width="58.97" height="10.67" fill="#ff0101"/><g fill="none" stroke="#000" stroke-width=".5292"><path d="m36.05 87.96h84.88"/><path d="m108 87.85v-13.26"/><path d="m49.05 87.85v-13.26"/></g><path d="m51.48 88.08 6.514 39.43 25.88 25.88 21.58-65.31" fill="#01e6ff" fill-opacity=".3024"/><path d="m58 127.5 100.9 8.533-75.03 17.35" fill="#01e6ff" fill-opacity=".3024"/><g fill="#fff" stroke="#000" stroke-linejoin="bevel" stroke-width=".5292"><rect x="146.9" y="129.5" width="11.26" height="13.99"/><rect x="157.9" y="125.5" width="54.15" height="22.22"/><rect x="159.4" y="147.8" width="3.661" height="3.661"/><rect x="206.7" y="147.8" width="3.661" height="3.661"/></g><path d="m55.4 124.9 31.73 31.73" fill="none" stroke="#000" stroke-width=".5292"/><rect x="29.6" y="4.022" width="96.93" height="12.97" fill="#fff" stroke="#000" stroke-linejoin="bevel" stroke-width=".5292"/></svg>
